<svg xmlns="http://www.w3.org/2000/svg" viewBox="0 0 516.79 768.5"><defs><style>.cls-1{fill:#2e8a57;}.cls-2{fill:#fbfbe9;}.cls-3{fill:#442800;}.cls-4{fill:#41350b;}.cls-5{fill:#358e5c;}.cls-6{fill:#338e5a;}.cls-7{fill:#e1eee7;}.cls-8{fill:#daeae1;}.cls-9{fill:#e9f2ec;}.cls-10{fill:#e2efe7;}.cls-11{fill:#f3f8f5;}.cls-12{fill:#daeae0;}.cls-13{fill:#4d6844;}.cls-14{fill:#f6faf7;}.cls-15{fill:#f0f6f2;}.cls-16{fill:#368f5d;}.cls-17{fill:#dcebe2;}.cls-18{fill:#90c1a5;}.cls-19{fill:#78b493;}.cls-20{fill:#f2f7f4;}.cls-21{fill:#3f3f14;}.cls-22{fill:#a5cdb6;}.cls-23{fill:#539f74;}.cls-24{fill:#c4decf;}.cls-25{fill:#76b392;}.cls-26{fill:#431001;}.cls-27{fill:#f3f8f4;}.cls-28{fill:#e3efe8;}</style></defs><title>Element 2</title><g id="Ebene_2" data-name="Ebene 2"><g id="Ebene_1-2" data-name="Ebene 1"><path class="cls-1" d="M512.5,210.5c-4.1-20.14-9.73-39.75-18.29-58.36A267.51,267.51,0,0,0,462,99.24a264.48,264.48,0,0,0-48-47.46,252,252,0,0,0-54.39-31.41c-26-11.08-53-18.21-81.12-19.73C255.76-.58,232.93-.41,210.34,4.25a273.64,273.64,0,0,0-59.64,19,258,258,0,0,0-62.91,41,269.12,269.12,0,0,0-36.52,39.45A251.88,251.88,0,0,0,17.51,164C8.08,187.92,1.84,212.8.64,238.43c-.88,19-1.25,38.07,1.57,57.08a294.61,294.61,0,0,0,8.08,38.62c6,20.88,15.14,40.4,25.63,59.37,10.14,18.36,21.18,36.25,29.42,55.62,9.71,22.82,14.79,46.74,17,71.34.64,7,3.38,13.56,5.52,20.14.68,2.07,2.49,4,1.31,6.1A30.12,30.12,0,0,0,86.42,555c-3.25,14-3.56,27.89,1.55,41.6,1.75,4.69,3.2,9,.73,14.47-6.06,13.48-6.23,28.07-2.76,42,5.49,22.08,19,38.2,40.29,47.24a5.22,5.22,0,0,1,3.39,4,63.49,63.49,0,0,0,6.27,15.77c6.07,10,12.41,19.85,21.93,27.36,15.53,12.25,32.56,20.35,52.55,20.8,16,.36,32,.07,51.74.07,15.17-.9,34.14,1.38,53-1,19.92-2.5,36.47-12,50.3-25.88a82.47,82.47,0,0,0,21.34-36.21,7.74,7.74,0,0,1,5-5.69c15.87-6.53,27.32-18,34.37-33.26,9-19.5,8.83-39.57.3-59.39a5.81,5.81,0,0,1,.21-5.39c7.24-15.19,7.62-31.09,3.48-47-1.72-6.58-3.51-12.09,0-19,5.88-11.52,5-24.79,7.07-37.27a221.19,221.19,0,0,1,16.84-55.22c12-26.39,28.54-50.37,40.48-76.84,12.34-27.35,19.85-55.9,21.54-85.62C517.4,257.27,517.23,233.76,512.5,210.5ZM341.39,682.69c-1.72,13.21-7.82,23.63-19.27,30.73-8.16,5.05-17.19,6.89-26.61,6.92q-37.46.14-74.91,0c-10.63-.05-20.83-2.45-29.32-9.08a40.45,40.45,0,0,1-16-28.69c-.38-3.7,1.12-4.28,4.46-4.26,26.3.13,52.6.07,78.9.07,26.14,0,52.27.07,78.41-.08C340.61,678.26,341.85,679.19,341.39,682.69Zm26.09-26.31c-4.38,1.18-8.82,1-13.26,1h-96c-33.82,0-67.64.07-101.46,0-9,0-16.88-3-21.27-11.42-6.4-12.27.21-26.19,13.59-29.5,5.17-1.28,10.48-1.05,15.76-1.05q96.72,0,193.44.05c10.16,0,19.27,2.64,23.63,13.09C386.91,640.43,380.43,652.88,367.48,656.38Zm6.85-66a28.85,28.85,0,0,1-14.9,4q-50.49,0-101,0c-33.82,0-67.64.1-101.46-.05-12-.05-19.75-5.1-22.85-14.76-4.39-13.66,5.72-25,16.72-26.36a154.48,154.48,0,0,1,19.79-.79q93.36-.09,186.7,0a67.14,67.14,0,0,1,11.32,1c6,1,13.68,9.36,14.67,15.45C384.75,577.5,380.94,586.51,374.33,590.38Zm92.79-312.26a187.41,187.41,0,0,1-17.75,68.52c-8.37,17.65-18.59,34.28-27.8,51.46-8.58,16-16.88,32.26-22.18,49.78-.2.65-.23,1.28-1,1.52-1.4.65-1.89-.84-2.61-1,1.26.79,1.08,2.42,1.21,3.93.79,6.86-4.06,10.58-9.41,15.94.6-6.41-1-11.72,1.15-16.72,1.16-2.7.63-5.12.65-7.68,0-1.53-1.12-1.89-2.38-1.88s-2.37-.23-2.7,1.43c-2,9.93-6.94,18.88-9.29,28.74-.94,4-3.58,7.6-4.12,12-1.93-3.35-.89-6.79-1.09-10.11-.11-1.82.18-3.68-.08-5.48s1.38-4.6-1.17-5.18-3.33,2-4.22,4.27c-1.69,4.25-3.54,8.41-3.61,13.69-4.28-3.33-3.49-8.15-5.11-11.88a103.11,103.11,0,0,1-5.42-18c-.61-2.68-2.07-2-3.61-2-1.57,2.78-.42,5.79-.73,8.68-.16,1.52,0,3.24-2.42,2.23-1.72-3.58-4.8-6.27-6.26-10.09-.7-1.8-3.2-1.33-4.35-.52-1.41,1-1.12,3-.21,4.45,1.74,2.68,1.85,5.72,2.77,8.59-6.5-7.11-10.52-16.49-20.77-19.45,3.53,6.24,8,12.15,9.27,19,1.1,6,5.18,12.05,1.29,18.59-.74,1.24-.09,3.26-.28,4.89-.15,1.31.93,3.17-1.39,3.69-.73.18-1.5-.06-1.47-.79.22-4.88-3.35-9.16-2.22-14.18.13-.61-.43-.79-.85-1-2.28-.57-1-2.43-1.33-3.7-.4-1.46,1-3.42-1.13-4.39s-2.33,2-4,2.09a1.23,1.23,0,0,1-1.58-1.36c.15-8.28-.58-16.58.38-24.84-.24-1.6,0-4.06-.84-4.57-1.19-.7-2.74-.36-3.8,2.18-2.29,5.52-3.34,11.89-10,15.08-4.64,2.21-4.29.49-4.29-2.95,0-1.71,1.6-4.72-2.29-4.78-1.57,0-3.33,0-2.89,2.21,2.06,10.64-4.94,16-12.16,21.29-.44.32-.64,1-1.37,2.18-1.82-8.23,1.43-16.08-2.07-23.27-2.12-1.74-1.68-4.21-1.7-6.46-.07-10.28.32-20.58-.15-30.84-.35-7.67,3.13-12.54,9.26-16.19,3.65-.25,7.19.83,10.84,1,20.38,1,37.21-6.81,52.33-19.76,7.94-6.8,15-14.12,19.55-23.66a35.57,35.57,0,0,0,3.25-13c.7-10.61-5.45-18.62-16.61-21.89-6.15-1.8-6.4-2.19-2.87-7.66,6.42-9.93,11.5-20.3,11.56-32.46.1-19.54-14.5-31.79-33.88-28.69-11.33,1.81-21.17,6.73-30.31,13.38-4.45,3.24-5.55,2.84-6.84-2.68-2.19-9.32-6.1-17.63-14-23.47a27.11,27.11,0,0,0-37.87,5.32c-2.46,3.15-5,6.33-6.36,10.11-1.54,4.2-4,4.34-7.79,3-9.69-3.33-19.54-5.32-29.91-3.11-15.43,3.3-24.47,16-22,31.64A53.61,53.61,0,0,0,177.9,307c3.21,4.36,2.59,6-2.43,7.39-11.2,3.15-20.2,14.73-20.8,26.47-.48,9.4,1.76,18.17,5.72,26.57,8.26,17.52,20.28,31.59,37.63,40.7,10.46,5.5,21.45,8,33.24,5.47,2.06-.45,4-.91,5,1.63a38.63,38.63,0,0,1,.09,13.31c-1.19,4.39-.46,8.86-.59,13.29-.1,3.27-.2,6.5-1.69,9.5-1.84,1.79-.64,4.07-1,6.11-.92,6-1.8,12-2.69,18-2.17-.16-.75,4.57-4,2.92-2.6-8.56-3.69-17.58-7.61-25.77-.77-1.61.45-3.61-.89-5.24s-2.42-2.72-4.54-1.94c-1.28,4.68-.13,9.45-.62,14.14-.14,1.33,1.3,3.48-1.47,3.88-2.37-3.56-4.85-7-7.07-10.69-2.51-4.13-3.72-4.41-7.15-1.06-.78.77-1.59.91-1.76-.18-.54-3.3-3.1-2.47-4.54-1.77-1.64.79-1.13,3.19-.62,4.56,3,8.21,1.14,16.64,1.45,25,0,.21-.43.43-.69.66-1.64-.42-1.3-1.8-1.19-2.84.61-5.8-2.31-11.17-1.81-17,.28-3.25-2.49-2.55-4.58-1.63-1,.71-1.88.88-2.77-.09.12-3.82.2-7.65.38-11.46.08-1.9-.62-2.75-2.58-2.71-1.69.05-2.46.42-2.94,2.4-2.05,8.48-4,17-6.7,25.31-1.14,3.52-3.25,7.12-1.91,12-1.36-1-2-1.25-2-1.48.42-6.08-1.72-11.86-2.23-17.86-.4-4.6-1.53-9.25-1.47-14,0-2.3-1.5-2.12-3-2.2-2.16-.11-2.19,1.2-2.41,2.85-1.36,9.75-2.86,19.48-4.31,29.22a1.76,1.76,0,0,1-1.77.21c-1.5-8.93-.54-17.9-.47-26.85,0-.6.69-1.08,1.17-1.53,0-2.49,0-5,0-7.48,0-1.45-.12-2.73-2-2.7-1.45,0-2.67-.22-3.38,1.89-1.5,4.48-3.63,8.74-5.36,13.15-.33.83-.47,1.55-1.47,1.66a1.85,1.85,0,0,1-2.23-1.37c-1.59-3.92-4.44-7-7.18-10.13-1.37-1.58-3.12-1.17-4.58-.7s-1.12,2.5-.62,3.06c2.46,2.75.4,5.17-.2,7.7a4.22,4.22,0,0,1-1.94,1.12c-4.47-10.19-7.34-21-11.91-31.14-6.07-13.53-13-26.59-20.23-39.52-11.71-21-24-41.68-31.07-64.9a215.18,215.18,0,0,1-7.95-40.13,233.39,233.39,0,0,1-.55-41.27,190.18,190.18,0,0,1,15.49-63.64c6.87-15.56,14.86-30.35,25.07-44a223.13,223.13,0,0,1,38.63-39.72A207.28,207.28,0,0,1,171.6,67.76c15.94-7.49,32.73-12.15,50-15.54,17.89-3.51,35.93-3.7,53.84-2.58a188.88,188.88,0,0,1,61.85,14.71A212.89,212.89,0,0,1,450.91,176.21c6.85,15.6,11.17,31.84,14.3,48.4C468.55,242.28,468.29,260.33,467.12,278.12Z"/><path class="cls-2" d="M494.74,556.8c.35-.28.78-.87,1.32-1,.74-.17,1.17.45,1.14,1.17A1.23,1.23,0,0,1,496,558.2C495.25,558.24,494.76,557.86,494.74,556.8Z"/><path class="cls-3" d="M280.76,395.46c-5.95,3.83-10.1,8.21-9.59,16.35.76,12.23.34,24.54.42,36.83-1.32,1.68,1.66,5-2.23,5.71l0,0c-.22-3.82-2.15-3.42-4.65-1.95-3.89,2.29-5.73,6.63-9.69,9.63-.92-7.53-5.19-13.33-7.79-19.83-.65-1.64-2-3.11-3.79-2.39-2,.83-1.34,2.64-.46,4.18,2.25,3.94,1.77,8.54,2.21,12.69.92,8.71.29,17.59.26,26.41A7.88,7.88,0,0,1,245,485a3.68,3.68,0,0,1-2.64-3.47c-.34-4.69-1-9.35-1.56-14-.69-5.64-3.23-11.07-2.41-16.92.3-2.17-1.35-2.31-3-2.24a89.89,89.89,0,0,1-.15-20L235.08,414c-1.55-3-.91-6.21-.87-9.32a7.48,7.48,0,0,0-3.46-6.66c-7.9-5.88-14.2-13.48-21.18-20.35-1.88-1.85-1.76-3.78,0-5.67,3-3.13,6.1-6.12,9.13-9.2,2.75-2.79,5.41-2.82,8.19,0,4.59,4.57,9.37,9,13.68,13.82,3.44,3.86,7.53,7,11,10.78,2.54,2.71,5,2.71,7.63-.07,3.9-4.08,8-8,12-12,2.76-2.82,5.15-2.5,7.5.39,2.72,3.34,4.84,7.16,8.23,10a2.56,2.56,0,0,1,.5,3.62C285.59,391.66,284.26,394.75,280.76,395.46Z"/><path class="cls-4" d="M268.37,459.36c-3.06,7.56-5.77,15.22-6.5,23.79-2-3-2.16-7.25-1.34-11.28,1.21-6,4.15-11.17,6.84-16.5C270.05,456.11,268.76,457.85,268.37,459.36Z"/><path class="cls-5" d="M200.61,466.17c-1.76-1.23-1.9-3.14-2.13-5a3.65,3.65,0,0,1,3-.79c4.57,6.87,5.12,14.47,4,22.4-2.31-5.38-4.29-10.81-4.94-16.64a6.84,6.84,0,0,0,.53-.64A4.64,4.64,0,0,1,200.61,466.17Z"/><path class="cls-6" d="M180.6,458.27l2.77.09c.79,4.67-2.28,8.74-2.07,13.32a1.67,1.67,0,0,1-1.24,1.91,1.59,1.59,0,0,1-1.18-.59C177.44,471.28,178.75,460.33,180.6,458.27Z"/><path class="cls-7" d="M128,461.09c1,.36,1,1.19,1,2,.18,3.71-.45,7.45,1.4,11.06.89,1.73-.64,3.43-2.45,3.49-2,.07-1.26-1.93-1.29-3.07-.11-3.81-.1-7.62-.11-11.43C126.64,462.17,126.62,461.12,128,461.09Z"/><path class="cls-8" d="M294.38,468.38c-.85-4-.13-7.49,3-10.34.56-.51.74-1.65,1.82-1.15a1.61,1.61,0,0,1,.72,2.16c-2.48,4.84-2.16,10.49-4.54,15.34C294.13,472.53,295.66,470.23,294.38,468.38Z"/><path class="cls-9" d="M150.31,452.2c-1.33,9.41-1.72,18.82.15,28.21.72,1.55.46,3.2.31,4.79s-1,2-2.34,1c0-10.06,0-20.12,0-30.18C148.45,454.55,147.81,452.58,150.31,452.2Z"/><path class="cls-10" d="M311.32,441.27c0,7.05,0,14.11.12,21.16,0,1.72-.65,3.67,1.09,5-.35,2,.67,4.16-.77,5.89-1.49-.14-1.46-1-1.45-1.83,0-9.57,0-19.14.12-28.71C310.43,442.3,311,441.79,311.32,441.27Z"/><path class="cls-11" d="M319,473.47c2.33,3.83,1.49,8.51,3.33,12.51.49,1.07-.1,2.61,1.21,3.48-.66,1.21.52,3-2.14,4.39C321.93,486.58,319,480.27,319,473.47Z"/><path class="cls-12" d="M211.33,463.4c2.13-3.84.47-8,1-12,.29-2-.9-4.3,1.05-6,0,6.09.09,12.18.1,18.28,0,.9.35,2.33-1,2.36C210.67,466.06,211.56,464.37,211.33,463.4Z"/><path class="cls-13" d="M235.26,428.41q.07,10,.15,20c-.11,1.12.2,2.43-1.29,3C234.66,443.69,233.78,436,235.26,428.41Z"/><path class="cls-14" d="M343.45,460.34c2.79-.54,1.61-2.79,1.92-4.42.42-2.16-1.09-4.7,1.23-6.5,0,5.16,0,10.31,0,16.05C343.58,464.21,345.12,461.39,343.45,460.34Z"/><path class="cls-15" d="M226.46,478.34c2.25.27,1.6-3.39,4-2.93-2.08,3.32.24,7.32-1.56,11.24C226.22,484,228.73,480.47,226.46,478.34Z"/><path class="cls-16" d="M148.42,486.25c4.26-.7,1.18-4,2-5.84a1.36,1.36,0,0,1,.92,0c0,3.93.73,8-2.11,11.93C147.9,490.09,148.55,488.11,148.42,486.25Z"/><path class="cls-17" d="M397,452.35c-.76-2.31-2.75-3.8-4.38-6.21,3.07-.21,3.82,2.62,5.78,3.25Z"/><path class="cls-18" d="M201.51,460.37a2.54,2.54,0,0,1-3,.79c0-1.37-.87-3.31,1.23-3.62C201.55,457.27,201.31,459.14,201.51,460.37Z"/><path class="cls-19" d="M121.37,458.39l1.94-1.11-1.37,4.16C120.9,460.55,121.61,459.38,121.37,458.39Z"/><path class="cls-20" d="M294.38,468.38c1.77,1.76.64,4,1,6C293,472.71,294.54,470.41,294.38,468.38Z"/><path class="cls-21" d="M268.37,459.36c-.14-1.38.47-2.95-1-4,.39-.91,1.17-1,2-1l0,0C269.13,456,270.11,458,268.37,459.36Z"/><path class="cls-22" d="M198,456.65c-.59-.25-1.35-.34-1.2-1.25a1,1,0,0,1,1.41-.91,1.6,1.6,0,0,1,.94.93C199.4,456.33,198.6,456.43,198,456.65Z"/><path class="cls-23" d="M390.82,478.57a3.34,3.34,0,0,1,0-3.44A2.88,2.88,0,0,1,390.82,478.57Z"/><path class="cls-1" d="M280.76,395.46c2-2.35,5.07-4.42,5.87-7.13.93-3.16-3.46-4.18-5.12-6.55-6.15-8.79-6.28-8.7-14-1.19a93.55,93.55,0,0,0-7.75,7.78c-3.2,4-5.81,3.09-8.92,0-8-8-16.21-15.76-24-23.93-3.19-3.33-5.39-3.64-8.29,0s-9.25,6.5-9,10.55c.19,3.51,5.71,6.85,9.08,10,4.81,4.56,8.9,9.93,14.78,13.29a3.83,3.83,0,0,1,1.95,3.75q-.13,6-.28,11.94c-24,6.68-42.28-4.52-58.18-20.16-12-11.84-20.41-26.4-23.2-43.59-2.09-12.87,2.27-23.46,11.21-32.44a16.63,16.63,0,0,1,9.28-4.5c6.22-1.07,5.93-1,2.19-6.27-5.65-7.94-9.45-16.8-9.94-26.64-.89-17.77,10.7-29.87,29.24-30.93a54.9,54.9,0,0,1,24.43,4c3.88,1.61,5.47.77,6.83-2.94,1.43-3.92,4-7.28,6.73-10.44,12.28-14.25,32.15-14.22,44.46,0,5.84,6.75,8.75,14.78,10.14,24,2.52-1.82,4.58-3.37,6.69-4.84,8.86-6.2,18.53-10.51,29.34-11.73C346.76,245,361.54,261,358,283.69c-1.84,11.66-7.33,21.62-14.1,31.05,1.1,1.4,2.66,1.28,4,1.6,13.55,3.17,20.58,14.08,17.9,27.67-2.37,12-9.33,21.21-18,29.29-11,10.28-23.25,18.49-38.07,22.43C301.25,398,292.62,397,284,397.39,282.56,397.46,281.63,396.5,280.76,395.46Z"/><path class="cls-24" d="M387.4,435.35a6.06,6.06,0,0,1,1.54,4.36c-1.95.35-1.81-1.49-2.62-2.25A2.53,2.53,0,0,1,387.4,435.35Z"/><path class="cls-25" d="M387.4,435.35c-.13.82-.07,1.74-1.08,2.11a1.45,1.45,0,0,1-.33-2C386.37,434.8,386.89,434.65,387.4,435.35Z"/><path class="cls-26" d="M236.64,439.34V429.4h.48v9.94Z"/><path class="cls-27" d="M200.61,466.17c.23-1-.82-2.43,1-2.73.26,0,.83.49.89.83.3,1.54-.5,2.07-1.95,1.86Z"/><path class="cls-28" d="M204.56,469c-.2,1.67-.27,2.31-1.11,2.32s-1-.57-1.05-1.23c0-.85.15-1.66,1.22-1.5C204.31,468.67,204.5,469.34,204.56,469Z"/></g></g></svg>